<svg xmlns="http://www.w3.org/2000/svg">
  <style>
    :root svg:not(:target) {
      display: none
    }
  </style>
  <svg id="house" viewBox="0 0 75 72">
    <path fill="#81B3D2" d="M30.88 64.94h16.5V41.17h-16.5v23.77Zm13.5-2.89H33.88v-18h10.41v18h.1Z" />
    <path fill="#81B3D2"
      d="m75.32 39.18 2.17-2.09-10.21-9.84V.4H53.05v13.12L38.92 0 .46 37.2l2.16 2.08 8.05-7.76v37.6H6.65V72h65.89v-2.88h-5.26v-37.7l8.04 7.76ZM56.04 3.38h8.14v20.98l-8.14-7.85V3.38Zm8.25 65.64H13.76V28.54L38.92 4.18l25.26 24.36v40.48h.1Z" />
    <path fill="#81B3D2"
      d="M31.19 27.05c0 4.28 3.6 7.76 7.94 7.76 4.43 0 8.04-3.48 8.04-7.76 0-4.28-3.6-7.66-8.04-7.66-4.44 0-7.94 3.38-7.94 7.66Zm7.94-4.97a5.08 5.08 0 0 1 5.15 4.97 5.08 5.08 0 0 1-5.15 4.97 5.08 5.08 0 0 1-5.16-4.97 5.15 5.15 0 0 1 5.16-4.97ZM20.98 41.17h-3.1v3.88h3.1v-3.88ZM27.06 41.17h-3.09v3.88h3.1v-3.88ZM20.98 47.14h-3.1v3.88h3.1v-3.88ZM27.06 47.14h-3.09v3.88h3.1v-3.88ZM53.87 41.17h-3.09v3.88h3.1v-3.88ZM60.06 41.17h-3.1v3.88h3.1v-3.88ZM53.87 47.14h-3.09v3.88h3.1v-3.88ZM60.06 47.14h-3.1v3.88h3.1v-3.88Z" />
  </svg>
  <svg id="food" viewBox="0 0 76 69">
    <g>
      <path fill="#81B3D2"
        d="M76.53 45.33H5.36c-2.53 0-4.53 1.97-4.53 4.24v3.45c0 2.27 2 4.14 4.53 4.14h1.05v.98c0 5.42 4.74 9.76 10.43 9.76h48.21c5.8 0 10.43-4.43 10.43-9.76v-.98h1.05c2.42 0 4.53-1.87 4.53-4.24v-3.45c0-2.17-2-4.14-4.53-4.14Zm-4.1 12.81c0 3.75-3.27 6.8-7.27 6.8H16.73c-4 0-7.26-3.05-7.26-6.8v-.98h62.95v.98Zm5.47-5.22c0 .7-.63 1.28-1.37 1.28H5.36c-.74 0-1.37-.59-1.37-1.28v-3.45c0-.59.63-1.18 1.37-1.18h71.27c.74 0 1.37.59 1.37 1.28v3.35h-.1ZM17.89 37.35l5.68 3.94 5.8-3.94 5.78 3.94 5.8-3.94 5.68 3.94 5.79-3.94 5.79 3.94 5.8-3.94 5.78 3.94 6.63-4.63-1.79-2.37-4.84 3.26L64 33.6l-5.79 3.95-5.79-3.95-5.8 3.95-5.68-3.95-5.79 3.95-5.79-3.95-5.79 3.95-5.68-3.95-5.8 3.95-4.83-3.26-1.9 2.37 6.74 4.63 5.79-3.94ZM75.48 30.65c0-.6.1-2.56 0-2.96C74.74 12.32 59.58 0 40.94 0 22.31 0 7.04 12.32 6.31 27.7v2.95h69.17ZM40.94 2.95C57.8 2.96 71.7 14 72.32 27.7H9.47C10.2 14 24.1 2.96 40.94 2.96Z" />
      <path fill="#81B3D2"
        d="M40.94 16.75c1.17 0 2.11-.88 2.11-1.97 0-1.09-.94-1.97-2.1-1.97-1.17 0-2.11.88-2.11 1.97 0 1.1.94 1.97 2.1 1.97ZM32.52 11.92c1.16 0 2.1-.88 2.1-1.97 0-1.09-.93-1.97-2.1-1.97-1.16 0-2.1.88-2.1 1.97 0 1.1.94 1.97 2.1 1.97ZM49.37 11.92c1.16 0 2.1-.88 2.1-1.97 0-1.09-.94-1.97-2.1-1.97-1.17 0-2.1.88-2.1 1.97 0 1.1.93 1.97 2.1 1.97Z" />
    </g>
  </svg>
  <svg id="souvenir" viewBox="0 0 63 75">
    <path fill="#81B3D2"
      d="M64.02 22.12H38.26c14.36-6.8 15.52-11.1 14.99-13.5-1.16-3.9-5.91-6.9-10.35-5.3-5.8 2.1-7.39 10.3-8.97 16.2-2-6-3.9-13.6-8.45-17.5a7.94 7.94 0 0 0-6.01-2c-4.22.4-10.24 5.3-7.7 10.8 2.31 5.3 10.02 8.7 15.2 11.4H3.41a2.87 2.87 0 0 0-2.95 2.8v11.2c0 1.6 1.37 2.8 2.95 2.8h.32V75H63.9V39.01h.1c1.7 0 2.96-1.3 2.96-2.8v-11.2c0-1.6-1.37-2.9-2.95-2.9ZM44.59 5.82c2.22-.3 5.17 1.3 5.5 3.2.41 2.7-3.5 5.2-5.29 6.3-2.64 1.7-5.17 2.6-7.6 4 .85-3.7 2.64-12.9 7.4-13.5Zm-23.86 9.8c-2.32-1.5-6.75-4.4-6.65-7.7.11-3.6 6.02-6.5 9.19-3.8 4.01 3.3 5.91 11 7.39 16.4-3.38-1.6-6.55-2.8-9.93-4.9ZM26.96 72H6.8V39.01h20.16v33Zm0-35.99H3.63v-10.9h23.33v10.9Zm10.56 36h-7.5V25.1h7.5v46.9Zm23.22 0H40.7V39h20.16v33h-.1Zm3.06-36H40.7v-10.9H63.8v10.9Z" />
  </svg>
  <svg id="icon--open" viewBox="0 0 24 20">
    <path fill="currentColor" d="M24 0H0v4h24V0ZM24 8H0v4h24V8ZM24 16H0v4h24v-4Z" />
  </svg>
  <svg id="icon--closed" viewBox="0 0 26 25">
    <path fill="currentColor"
      d="M26 3.15 22.72 0 13 9.35 3.28 0 0 3.15l9.72 9.35L0 21.85 3.28 25 13 15.65 22.72 25 26 21.85l-9.72-9.35L26 3.15Z" />
  </svg>
  <svg id="icon-vk" viewBox="0 0 24 14">
    <path fill="currentColor"
      d="M23.45.95c.17-.55 0-.95-.8-.95h-2.62c-.67 0-.98.35-1.14.73 0 0-1.34 3.2-3.23 5.27-.61.6-.89.8-1.22.8-.17 0-.42-.2-.42-.74V.95c0-.66-.18-.95-.74-.95H9.15c-.42 0-.67.3-.67.6 0 .61.95.76 1.05 2.5v3.8c0 .84-.16.99-.5.99-.88 0-3.05-3.21-4.33-6.89-.25-.71-.5-1-1.17-1H.9C.15 0 0 .35 0 .73c0 .68.89 4.07 4.14 8.55C6.32 12.34 9.38 14 12.15 14c1.67 0 1.88-.37 1.88-1v-2.32c0-.73.16-.88.69-.88.38 0 1.05.2 2.61 1.67C19.11 13.22 19.4 14 20.41 14h2.62c.75 0 1.13-.37.91-1.1-.24-.72-1.09-1.77-2.21-3.02-.62-.7-1.54-1.47-1.81-1.86-.4-.49-.28-.7 0-1.14 0 0 3.2-4.43 3.53-5.93Z" />
  </svg>
  <svg id="icon-telegram" viewBox="0 0 21 18">
    <path fill="currentColor"
      d="m20.94 1.6-3.17 14.95c-.24 1.05-.86 1.31-1.75.82L11.2 13.8l-2.33 2.24c-.26.26-.47.47-.97.47l.35-4.91 8.95-8.09c.39-.35-.09-.54-.6-.2L5.51 10.3.76 8.8C-.28 8.48-.3 7.77.97 7.27L19.6.09c.86-.32 1.62.2 1.34 1.51Z" />
  </svg>
  <svg id="icon-youtube" viewBox="0 0 20 14">
    <path fill="currentColor"
      d="M17.18 0H2.81C1.31 0 0 1.3 0 2.8v8.3C0 12.7 1.3 14 2.81 14h14.37A2.8 2.8 0 0 0 20 11.2V2.8c.1-1.5-1.2-2.8-2.8-2.8ZM7.03 10.4V3.6L13.87 7l-6.84 3.4Z" />
  </svg>
  <svg id="htmlacademy" viewBox="0 0 24 29">
    <path fill="currentColor"
      d="M12.13 0h-.09L0 1.2v21L12.04 29 24 22.2v-21L12.13 0ZM22.3 10.29 12.04 4.51v-.09h-.08l-.1-.08v.08L1.7 10.3V2.64l10.26-1.02L22.3 2.64v7.65Zm-10.34-4.5 10.26 5.7-4.02 2.2-6.33-3.57v1.2l5.26 2.97-.8.42-4.46-2.55v1.2l3.39 1.95-.72.42-2.67-1.53v1.2l1.7.93-1.61.93-10.18-5.7 10.18-5.78ZM1.7 12.83l10.17 5.78v.86l-7.05-4v1.19l7.14 4.08v.94l-7.14-4v1.19l7.14 4.08 7.22-4.17v-4.42l3.04-1.7v8.5l-10.26 5.87L1.7 21.26v-8.42Z" />
  </svg>
  <svg id="icon-like" viewBox="0 0 22 20">
    <path fill="currentColor"
      d="m12.4 3.6-.6 2.9-.6 2.5h8.7v2.1L17 18H8V8l4.4-4.4ZM2 10v8-8ZM13.2 0 6.6 6.6c-.4.3-.6.8-.6 1.4v10c0 1.1.9 2 2 2h9c.8 0 1.5-.5 1.8-1.2l3-7.1c.1-.2.1-.5.1-.7V9h.1a2 2 0 0 0-2-2h-6.3l1-4.6v-.3c0-.4-.2-.8-.4-1.1l-1.1-1ZM4 8H0v12h4V8Z" />
  </svg>
  <svg id="icon-phone" viewBox="0 0 18 18">
    <path
      d="M3.6 7.8c1.4 2.8 3.8 5.1 6.6 6.6l2.2-2.2c.3-.3.7-.4 1-.2 1.1.4 2.3.6 3.6.6.6 0 1 .4 1 1V17c0 .6-.4 1-1 1C7.6 18 0 10.4 0 1c0-.6.4-1 1-1h3.5c.6 0 1 .4 1 1 0 1.2.2 2.4.6 3.6.1.3 0 .7-.2 1L3.6 7.8Z" />
  </svg>
  <svg id="icon-email" viewBox="0 0 16 12">
    <path
      d="M8 8c-.3 0-.5-.1-1-.3L0 4v7c0 .5.5 1 1 1h14c.5 0 1-.5 1-1V4L9 7.7c-.5.2-.7.3-1 .3Zm7-8H1C.5 0 0 .5 0 1v.8L8 6l8-4.2V1c0-.5-.5-1-1-1Z" />
  </svg>
  <svg id="icon-chek" viewBox="0 0 26 19">
    <path fill="#333"
      d="M22.3 1.3 21.27.23a.84.84 0 0 0-1.14 0L8.8 11.96 2.9 5.84a.84.84 0 0 0-1.14 0L.71 6.93c-.28.3-.28.89 0 1.18l7.42 7.7c.2.19.38.19.57.19.2 0 .38-.1.57-.2L22.11 2.5c.48-.3.48-.79.2-1.18Z" />
  </svg>
  <svg id="play-video" viewBox="0 0 48 54">
    <path fill="#fff" fill-opacity=".7" d="M48 27 0 54V0l48 27Z" />
  </svg>
  <svg id="map-marker" viewBox="0 0 27 27">
    <g>
      <path fill="#fff" d="M13.5 27a13.5 13.5 0 1 0 0-27 13.5 13.5 0 0 0 0 27Z" />
      <path fill="#81B3D3" d="M13.5 21.9a8.4 8.4 0 1 0 0-16.8 8.4 8.4 0 0 0 0 16.8Z" />
    </g>
  </svg>
</svg>
